<svg xmlns="http://www.w3.org/2000/svg" viewBox="0 0 611.999 611.999" width="512" height="512"><path d="M556.409 321.379c-30.701 0-55.589 24.886-55.589 55.589 0 59.766-48.623 108.391-108.386 108.391h-38.685c-59.766 0-108.389-48.625-108.389-108.391V182.005l39.29 39.29c10.857 10.854 25.082 16.28 39.307 16.28 14.225 0 28.453-5.426 39.31-16.282 21.708-21.708 21.708-56.906 0-78.617l-94.489-94.487c-21.1-21.105-49.16-32.729-79.005-32.729s-57.902 11.621-79.005 32.726l-94.487 94.491c-21.708 21.708-21.708 56.906 0 78.617 21.711 21.708 56.909 21.711 78.617-.002l39.283-39.283v194.959c0 121.071 98.499 219.57 219.568 219.57h38.685c121.068 0 219.565-98.499 219.565-219.57 0-30.703-24.887-55.589-55.59-55.589z" fill="#FFF"/></svg>